# xmcd
#
# Track frame offsets:
#	150
#	13568
#	25095
#	39210
#	51446
#	61916
#	73884
#	86631
#	97185
#	109593
#	122087
#	136111
#	149251
#	162451
#	176427
#	188936
#	202756
#	213494
#
# Disc length: 3002 seconds
#
# Revision: 2
# Processed by: cddbd v1.4PL0 Copyright (c) Steve Scherf et al.
# Submitted via: audiograbber 1.81.03
#
DISCID=fc0bb812
DTITLE=Various Artist - Guitar In My Hand - CD2
DYEAR=2001
DGENRE=Blues
TTITLE0=Lightnin' Hopkins - All Through My Dreams
TTITLE1=Amos Milburn - Money Hustlin' Woman
TTITLE2=Tiny Kennedy - The Lady With The Red Dress On
TTITLE3=Amos Milburn - Operation Blues
TTITLE4=Walter Brown - Suppressin' The Blues
TTITLE5=Julia Lee and Her Boy Friends - Decent Woman Blues
TTITLE6=John Lee Hooker - Shee Left Me By Myself
TTITLE7=Bus Moten and His Men - On The Gravy Train
TTITLE8=Floyd Dixon - Rockin' At Home
TTITLE9=Jay McShann - Everything Will Be Alright
TTITLE10=Cootie Williams and His Orchestra - It May Be Easy, But I'm Not A Fool
TTITLE11=Walter Brown - Slow Down Baby
TTITLE12=Tommy Douglas - Mizzou
TTITLE13=Amos Milburn - Sad And Blue
TTITLE14=John Lee Hooker - The Story Of A Married Woman
TTITLE15=Floyd Dixon - Married Woman
TTITLE16=Bus Motten and His Men - It Ain't Gonna Give Nobody None Of My Jelly Rol
TTITLE16=l
TTITLE17=Julia Lee and Her Boy Friends - After Hours Waltz
EXTD=
EXTT0=
EXTT1=
EXTT2=
EXTT3=
EXTT4=
EXTT5=
EXTT6=
EXTT7=
EXTT8=
EXTT9=
EXTT10=
EXTT11=
EXTT12=
EXTT13=
EXTT14=
EXTT15=
EXTT16=
EXTT17=
PLAYORDER=
